<svg xmlns="http://www.w3.org/2000/svg" viewBox="0 0 1024 1024" width="1024" height="1024">
  <defs>
    <linearGradient id="mBody" x1="0" y1="0" x2="0" y2="1">
      <stop offset="0" stop-color="#34353a"/><stop offset="0.5" stop-color="#222327"/><stop offset="1" stop-color="#161719"/>
    </linearGradient>
    
    <linearGradient id="vTop" x1="0.18" y1="0" x2="0.82" y2="1">
      <stop offset="0" stop-color="#fbfcfe"/><stop offset="1" stop-color="#dde1e8"/>
    </linearGradient>
    <linearGradient id="vLeft" x1="0" y1="0" x2="0" y2="1">
      <stop offset="0" stop-color="#bcc2cb"/><stop offset="1" stop-color="#9aa1ab"/>
    </linearGradient>
    <linearGradient id="vRight" x1="0" y1="0" x2="0" y2="1">
      <stop offset="0" stop-color="#878e98"/><stop offset="1" stop-color="#666c76"/>
    </linearGradient>
    <linearGradient id="vAccent" x1="0.15" y1="0" x2="0.85" y2="1">
      <stop offset="0" stop-color="#ff6b6f"/><stop offset="1" stop-color="#e23b41"/>
    </linearGradient>
    <linearGradient id="vSheen" x1="0" y1="0" x2="0" y2="1">
      <stop offset="0" stop-color="#ffffff" stop-opacity="0.14"/>
      <stop offset="0.34" stop-color="#ffffff" stop-opacity="0.02"/>
      <stop offset="0.62" stop-color="#ffffff" stop-opacity="0"/>
    </linearGradient>
    <filter id="vContact" x="-60%" y="-60%" width="220%" height="220%">
      <feGaussianBlur stdDeviation="26"/>
    </filter>
    <clipPath id="mClip"><rect x="100" y="100" width="824" height="824" rx="184"/></clipPath>
  </defs>
  <rect x="100" y="100" width="824" height="824" rx="184" fill="url(#mBody)"/>
  <g clip-path="url(#mClip)">
    <ellipse cx="512" cy="832" rx="232" ry="40" fill="#000000" opacity="0.34" filter="url(#vContact)"/>
    <polygon points="512,206 789.13,366 512,526 234.87,366" fill="url(#vTop)"/>
    <polygon points="234.87,366 512,526 512,846 234.87,686" fill="url(#vLeft)"/>
    <polygon points="512,526 789.13,366 789.13,686 512,846" fill="url(#vRight)"/>
    <g stroke="#8b929d" stroke-width="2.78" stroke-opacity="0.5" stroke-linecap="round"><line x1="604.38" y1="259.33" x2="327.25" y2="419.33"/><line x1="419.62" y1="259.33" x2="696.75" y2="419.33"/><line x1="696.75" y1="312.67" x2="419.62" y2="472.67"/><line x1="327.25" y1="312.67" x2="604.38" y2="472.67"/></g>
    <g stroke="#5f656f" stroke-width="2.78" stroke-opacity="0.5" stroke-linecap="round"><line x1="327.25" y1="419.33" x2="327.25" y2="739.33"/><line x1="234.87" y1="472.67" x2="512" y2="632.67"/><line x1="419.62" y1="472.67" x2="419.62" y2="792.67"/><line x1="234.87" y1="579.33" x2="512" y2="739.33"/></g>
    <g stroke="#454a53" stroke-width="2.78" stroke-opacity="0.5" stroke-linecap="round"><line x1="604.38" y1="472.67" x2="604.38" y2="792.67"/><line x1="512" y1="632.67" x2="789.13" y2="472.67"/><line x1="696.75" y1="419.33" x2="696.75" y2="739.33"/><line x1="512" y1="739.33" x2="789.13" y2="579.33"/></g>
    <polygon points="512,206 604.38,259.33 512,312.67 419.62,259.33" fill="url(#vAccent)"/>
    <polyline points="419.62,259.33 512,206 604.38,259.33" fill="none" stroke="#ffd9da" stroke-width="2.56" stroke-opacity="0.65" stroke-linejoin="round"/>
    <g stroke="#101113" stroke-width="3.2" stroke-opacity="0.32" fill="none" stroke-linejoin="round">
      <polygon points="512,206 789.13,366 512,526 234.87,366"/>
      <polyline points="234.87,366 234.87,686 512,846 789.13,686 789.13,366"/>
      <line x1="512" y1="526" x2="512" y2="846"/>
    </g>
    <polyline points="234.87,366 512,206 789.13,366" fill="none" stroke="#ffffff" stroke-width="2.37" stroke-opacity="0.4" stroke-linejoin="round"/>
    <rect x="100" y="100" width="824" height="824" fill="url(#vSheen)"/>
  </g>
  <rect x="101.5" y="101.5" width="821" height="821" rx="182.5" fill="none" stroke="#ffffff" stroke-width="3" stroke-opacity="0.08"/>
</svg>
